<svg xmlns="http://www.w3.org/2000/svg" width="64" height="64"  viewBox="0 0 512 512">
    <path fill="url(#paint0_linear_2581_180288)" opacity="0.48"
        d="m0.73 121l49.57 1h311.4l49.6-62zM245 201v46h22v-46zm-126 64L75.53 439H436.5L393 265zm137 14c40.2 0 73 32.8 73 73s-32.8 73-73 73s-73-32.8-73-73s32.8-73 73-73m0 18c-30.5 0-55 24.5-55 55s24.5 55 55 55s55-24.5 55-55s-24.5-55-55-55m16 12.5l-5.9 65.7l-30.2-10.5zM41 457v30h430v-30z" />
    <path fill="url(#paint1_linear_2581_180288)" opacity="0.48" fill-rule="evenodd" clip-rule="evenodd"
        d="m50.73 121l49.57 62h311.4l49.6-62zM245 201v46h22v-46zm-126 64L75.53 439H436.5L393 265zm137 14c40.2 0 73 32.8 73 73s-32.8 73-73 73s-73-32.8-73-73s32.8-73 73-73m0 18c-30.5 0-55 24.5-55 55s24.5 55 55 55s55-24.5 55-55s-24.5-55-55-55m16 12.5l-5.9 65.7l-30.2-10.5zM41 457v30h430v-30z" />
    <path fill="url(#paint2_linear_2581_180288)" opacity="0.04" fill-rule="evenodd" clip-rule="evenodd"
        d="m50.73 121l49.57 62h311.4l49.6-62zM245 201v46h22v-46zm-126 64L75.53 439H436.5L393 265zm137 14c40.2 0 73 32.8 73 73s-32.8 73-73 73s-73-32.8-73-73s32.8-73 73-73m0 18c-30.5 0-55 24.5-55 55s24.5 55 55 55s55-24.5 55-55s-24.5-55-55-55m16 12.5l-5.9 65.7l-30.2-10.5zM41 457v30h430v-30z" />
    <defs>
        <linearGradient id="paint0_linear_2581_180288" x1="2" y1="10.6612" x2="40.7444" y2="45.5736"
            gradientUnits="userSpaceOnUse">
            <stop stop-color="#73BAFB" />
            <stop offset="1" stop-color="#1877F2" />
        </linearGradient>
        <linearGradient id="paint1_linear_2581_180288" x1="19.9175" y1="8" x2="67.2278" y2="49.7565"
            gradientUnits="userSpaceOnUse">
            <stop stop-color="#73BAFB" />
            <stop offset="1" stop-color="#1877F2" />
        </linearGradient>
        <linearGradient id="paint2_linear_2581_180288" x1="19.9175" y1="8" x2="67.2278" y2="49.7565"
            gradientUnits="userSpaceOnUse">
            <stop stop-color="#1877F2" />
            <stop offset="1" stop-color="#0C44AE" />
        </linearGradient>
    </defs>
</svg>